<svg width="55" height="55" viewBox="0 0 55 55" fill="none" xmlns="http://www.w3.org/2000/svg">
<rect width="55" height="55" fill="#E95453"/>
<path d="M45 25.65C45 23.765 45 22.82 44.415 22.235C43.83 21.65 42.885 21.65 41 21.65H37.3501C35.4651 21.65 34.5201 21.65 33.9351 21.065C33.3501 20.48 33.3501 19.535 33.3501 17.65V14C33.3501 12.115 33.3501 11.17 32.7651 10.585C32.1801 9.99999 31.2351 10 29.3501 10H25.6499C23.7649 10 22.8201 9.99999 22.2351 10.585C21.6501 11.17 21.6499 12.115 21.6499 14V17.65C21.6499 19.535 21.6499 20.48 21.0649 21.065C20.4799 21.65 19.5349 21.65 17.6499 21.65H14C12.115 21.65 11.17 21.65 10.585 22.235C9.99996 22.82 10 23.765 10 25.65V29.35C10 31.235 9.99996 32.18 10.585 32.765C11.17 33.35 12.115 33.35 14 33.35H17.6499C19.5349 33.35 20.4799 33.35 21.0649 33.935C21.6499 34.52 21.6499 35.465 21.6499 37.35V41C21.6499 42.885 21.6501 43.83 22.2351 44.415C22.8201 45 23.7649 45 25.6499 45H29.3501C31.2351 45 32.1801 45 32.7651 44.415C33.3501 43.83 33.3501 42.885 33.3501 41V37.35C33.3501 35.465 33.3501 34.52 33.9351 33.935C34.5201 33.35 35.4651 33.35 37.3501 33.35H41C42.885 33.35 43.83 33.35 44.415 32.765C45 32.18 45 31.235 45 29.35V25.65ZM29.3 21.7C31.185 21.7 32.1301 21.7 32.7151 22.285C33.3001 22.87 33.3 23.815 33.3 25.7V29.3C33.3 31.185 33.3001 32.13 32.7151 32.715C32.1301 33.3 31.185 33.3 29.3 33.3H25.7C23.815 33.3 22.8699 33.3 22.2849 32.715C21.6999 32.13 21.7 31.185 21.7 29.3V25.7C21.7 23.815 21.6999 22.87 22.2849 22.285C22.8699 21.7 23.815 21.7 25.7 21.7H29.3Z" fill="white"/>
</svg>
